Coordinates
version=1
nRows=21
nColumns=28
inDegrees=yes

Units are S.I. units (second, meters, Newtons, ...)
Angles are in degrees.

endheader
time	pelvis_tilt	pelvis_list	pelvis_rotation	pelvis_tx	pelvis_ty	pelvis_tz	hip_flexion_r	hip_adduction_r	hip_rotation_r	knee_angle_r	ankle_angle_r	subtalar_angle_r	mtp_angle_r	hip_flexion_l	hip_adduction_l	hip_rotation_l	knee_angle_l	socket_flexion	socket_adduction	socket_rotation	socket_tx	socket_ty	socket_tz	foot_flex	lumbar_extension	lumbar_bending	lumbar_rotation
      0.00000000	      3.71956782	      0.89005303	     -0.90496349	     -0.87359828	      1.00201504	      0.27541428	    -27.42476813	      2.63360997	    -11.42958554	     -5.07366161	     13.79963819	      1.85315258	     12.03000555	     29.76362972	      3.56178375	      6.05741476	    -11.35236175	      0.00000000	      0.00000000	      0.00000000	      0.00000000	     -0.00114032	      0.00000000	      1.15014195	    -15.90086350	     -2.43442016	      2.30689626
      0.00416667	      3.65825545	      0.87067534	     -0.82837294	     -0.86793470	      1.00126562	      0.27494194	    -27.54886303	      2.65979123	    -11.35524780	     -5.28804682	     13.76422836	      1.85018305	     12.02930456	     29.59406741	      3.63504175	      6.07340873	    -11.41698331	      0.00000000	      0.00000000	      0.00000000	      0.00000000	     -0.00141742	      0.00000000	      1.05077998	    -15.75030295	     -2.43907665	      2.30972572
      0.00833333	      3.62406295	      0.82580498	     -0.84279998	     -0.86212278	      1.00063544	      0.27452530	    -27.51065124	      2.62296611	    -11.40721414	     -5.88841325	     13.58204416	      1.70282604	     12.01422925	     29.26557123	      3.64540694	      6.24403883	    -11.23650797	      0.00000000	      0.00000000	      0.00000000	      0.00000000	     -0.00204154	      0.00000000	      0.51748938	    -15.67552772	     -2.41636731	      2.31511713
      0.01250000	      3.56545932	      0.79360586	     -0.77137799	     -0.85598374	      0.99986915	      0.27401810	    -27.61907087	      2.65277500	    -11.35896554	     -6.17054137	     13.52147910	      1.67629189	     12.01306518	     29.06371056	      3.70966516	      6.24540792	    -11.30036420	      0.00000000	      0.00000000	      0.00000000	      0.00000000	     -0.00243801	      0.00000000	      0.41441480	    -15.51630610	     -2.40312707	      2.32128811
      0.01666667	      3.54701685	      0.72361577	     -0.81175890	     -0.84987717	      0.99927431	      0.27356762	    -27.50513818	      2.59644023	    -11.46035563	     -6.98495774	     13.25355045	      1.46385477	     11.99946514	     28.69781164	      3.68614486	      6.42020771	    -11.11614736	      0.00000000	      0.00000000	      0.00000000	      0.00000000	     -0.00312648	      0.00000000	     -0.11830476	    -15.45990342	     -2.34482520	      2.33600286
      0.02083333	      3.53973105	      0.63340171	     -0.81422460	     -0.84372478	      0.99862006	      0.27298799	    -27.42770984	      2.57487063	    -11.57479970	     -7.75532914	     13.05640691	      1.23004177	     12.08812765	     28.42326608	      3.66828594	      6.41115802	    -11.14086996	      0.00000000	      0.00000000	      0.00000000	      0.00000000	     -0.00370337	      0.00000000	     -0.39841888	    -15.42788969	     -2.23454341	      2.42854197
      0.02500000	      3.48273366	      0.59347737	     -0.80272720	     -0.83720704	      0.99794534	      0.27256258	    -27.41399125	      2.55811785	    -11.52563060	     -8.31027073	     12.86860371	      1.12861314	     12.11530799	     28.12534193	      3.69665966	      6.57775309	    -11.07643930	      0.00000000	      0.00000000	      0.00000000	      0.00000000	     -0.00439416	      0.00000000	     -0.73346356	    -15.27360563	     -2.25770695	      2.43958858
      0.02916667	      3.43076746	      0.53940429	     -0.79099927	     -0.83067947	      0.99728909	      0.27204560	    -27.34166269	      2.52988010	    -11.55104037	     -8.98921589	     12.61091361	      0.95566604	     12.14476572	     27.83819982	      3.71593560	      6.67898013	    -11.03857806	      0.00000000	      0.00000000	      0.00000000	      0.00000000	     -0.00512169	      0.00000000	     -1.08919586	    -15.14648830	     -2.22180790	      2.45839724
      0.03333333	      3.37745186	      0.50098259	     -0.76711701	     -0.82409975	      0.99667028	      0.27150211	    -27.25604672	      2.49077728	    -11.54680827	     -9.69451426	     12.33873316	      0.76897162	     12.17754833	     27.55469527	      3.75714302	      6.80372312	    -11.01920648	      0.00000000	      0.00000000	      0.00000000	      0.00000000	     -0.00582887	      0.00000000	     -1.40320581	    -15.01739230	     -2.20745178	      2.46983975
      0.03750000	      3.23853489	      0.45490196	     -0.76592647	     -0.81751412	      0.99602028	      0.27095048	    -27.01077327	      2.43533130	    -11.54350499	    -10.51993897	     11.94374209	      0.32537768	     12.47268655	     27.39169090	      3.78159406	      6.87464462	    -11.06120734	      0.00000000	      0.00000000	      0.00000000	      0.00000000	     -0.00648212	      0.00000000	     -1.67630728	    -14.78752941	     -2.18768495	      2.53532280
      0.04166667	      3.18096692	      0.44296357	     -0.65096634	     -0.81048369	      0.99540414	      0.27036412	    -27.11131043	      2.46631199	    -11.42399597	    -10.86333411	     11.84555959	      0.30805126	     12.47750333	     27.14065339	      3.88093037	      6.91154335	    -11.16207819	      0.00000000	      0.00000000	      0.00000000	      0.00000000	     -0.00728667	      0.00000000	     -1.77956801	    -14.56598799	     -2.19806538	      2.53189172
      0.04583333	      3.13982943	      0.43838523	     -0.69048976	     -0.80407003	      0.99505643	      0.26991262	    -26.82853911	      2.32306711	    -11.44923598	    -11.93594119	     11.29569473	     -0.00515203	     12.47788312	     26.81292122	      3.92263117	      7.17379175	    -11.07867362	      0.00000000	      0.00000000	      0.00000000	      0.00000000	     -0.00804804	      0.00000000	     -2.31363758	    -14.51452955	     -2.24387244	      2.47915273
      0.05000000	      3.05871085	      0.44621027	     -0.65150006	     -0.79739304	      0.99463321	      0.26925967	    -26.57809516	      2.21057447	    -11.53647602	    -12.87237059	     10.77844052	     -0.45888161	     12.57669292	     26.60777750	      4.01510113	      7.14835964	    -11.17615196	      0.00000000	      0.00000000	      0.00000000	      0.00000000	     -0.00872819	      0.00000000	     -2.55286330	    -14.34692732	     -2.24562525	      2.44268739
      0.05416667	      2.91044602	      0.50501415	     -0.63074681	     -0.79064539	      0.99421347	      0.26879430	    -26.28350539	      2.06651313	    -11.49858903	    -13.74313998	     10.21530665	     -0.98115954	     12.79095769	     26.46402021	      4.13640192	      7.23332190	    -11.27972667	      0.00000000	      0.00000000	      0.00000000	      0.00000000	     -0.00934812	      0.00000000	     -2.78631202	    -14.09290894	     -2.36970748	      2.38080309
      0.05833333	      2.60373418	      0.58685182	     -0.55338662	     -0.78370734	      0.99362866	      0.26823244	    -25.91442524	      1.94903194	    -11.33248542	    -14.35300614	      8.32529859	     -2.12701653	     18.06279001	     26.49180338	      4.30488827	      7.34461324	    -11.40852981	      0.00000000	      0.00000000	      0.00000000	      0.00000000	     -0.00993621	      0.00000000	     -2.97343288	    -13.62091067	     -2.48606793	      2.28571767
      0.06250000	      2.60408223	      0.65053049	     -0.48247678	     -0.77716357	      0.99355059	      0.26765449	    -25.74634201	      1.82425087	    -11.25209677	    -15.24795600	      7.94313592	     -2.31124761	     17.99592138	     26.21667280	      4.45880849	      7.49525391	    -11.55248517	      0.00000000	      0.00000000	      0.00000000	      0.00000000	     -0.01052634	      0.00000000	     -3.20959706	    -13.56993094	     -2.60324954	      2.22524033
      0.06666667	      2.60419429	      0.74981061	     -0.42521006	     -0.77060165	      0.99352984	      0.26709016	    -25.49709819	      1.63052418	    -11.26524684	    -16.29001745	      7.40870685	     -2.59326374	     17.90584461	     25.95596107	      4.63749331	      7.57361127	    -11.73002427	      0.00000000	      0.00000000	      0.00000000	      0.00000000	     -0.01105577	      0.00000000	     -3.39536284	    -13.51677229	     -2.75099981	      2.13379978
      0.07083333	      2.59039949	      0.88799816	     -0.35041656	     -0.76405161	      0.99359268	      0.26650367	    -25.23610488	      1.41096240	    -11.24875538	    -17.30898932	      6.84617020	     -2.88482479	     17.81954095	     25.72404434	      4.85996745	      7.64207892	    -11.93551746	      0.00000000	      0.00000000	      0.00000000	      0.00000000	     -0.01146510	      0.00000000	     -3.54646694	    -13.44698879	     -2.94844202	      2.02839245
      0.07500000	      2.42034443	      1.24108847	     -0.27769777	     -0.75716344	      0.99356595	      0.26608940	    -24.76214374	      0.96134294	    -11.46722930	    -18.44432448	      6.02872402	     -3.61583797	     17.78461773	     25.65461090	      5.27056144	      7.45460134	    -12.15885601	      0.00000000	      0.00000000	      0.00000000	      0.00000000	     -0.01157929	      0.00000000	     -3.64568213	    -13.14688215	     -3.39949126	      1.79691891
      0.07916667	      2.41359144	      1.38106981	     -0.19543243	     -0.75075186	      0.99378386	      0.26546402	    -24.40593037	      0.71505649	    -11.47930736	    -19.61035057	      5.35920635	     -3.92638361	     17.73752683	     25.45266849	      5.49343340	      7.49388254	    -12.42345258	      0.00000000	      0.00000000	      0.00000000	      0.00000000	     -0.01187926	      0.00000000	     -3.77115051	    -13.10580335	     -3.57008359	      1.66828141
      0.08333333	      2.15565439	      1.76972006	     -0.10078356	     -0.74390599	      0.99379137	      0.26501884	    -23.79461632	      0.22340691	    -11.66677413	    -20.79590465	      4.44608605	     -4.61868857	     18.02156439	     25.50407342	      5.94579559	      7.37074308	    -12.71095685	      0.00000000	      0.00000000	      0.00000000	      0.00000000	     -0.01181771	      0.00000000	     -3.84514504	    -12.69531795	     -4.07326164	      1.39439354
